<?xml version="1.0" encoding="utf-8"?>
<Project name="Intimidation" themeId="0" version="65538" templateID="SimpleProjectTemplate">
  <MediaItems>
    <MediaItem id="1" filePath="C:\Users\Niki\Desktop\img school\Effects-Of-Bullying.jpg" arWidth="300" arHeight="300" duration="0" songTitle="" songArtist="" songAlbum="" />
    <MediaItem id="6" filePath="E:\cyberintimidationfr.gif" arWidth="300" arHeight="332" duration="0" songTitle="" songArtist="" songAlbum="" />
    <MediaItem id="8" filePath="E:\Theupgrade9.png" arWidth="960" arHeight="526" duration="0" songTitle="" songArtist="" songAlbum="" />
    <MediaItem id="9" filePath="E:\MV5BMTY3MjAyMTU4OV5BMl5BanBnXkFtZTgwODcyMzY0MDE@._V1_UY317_CR12,0,214,317_AL_.jpg" arWidth="214" arHeight="317" duration="0" songTitle="" songArtist="" songAlbum="" />
    <MediaItem id="10" filePath="E:\girl bullies.jpg" arWidth="500" arHeight="300" duration="0" songTitle="" songArtist="" songAlbum="" />
    <MediaItem id="11" filePath="E:\tumblr_nuvzxq3KU11toa9fjo2_1280.jpg" arWidth="1280" arHeight="1201" duration="0" songTitle="" songArtist="" songAlbum="" />
    <MediaItem id="12" filePath="E:\earth-wallpapers-16.jpg" arWidth="1920" arHeight="1200" duration="0" songTitle="" songArtist="" songAlbum="" />
    <MediaItem id="13" filePath="E:\intimidation_Thinkstock_816.jpg" arWidth="490" arHeight="276" duration="0" songTitle="" songArtist="" songAlbum="" />
    <MediaItem id="14" filePath="E:\friendship-66v.jpg" arWidth="1024" arHeight="768" duration="0" songTitle="" songArtist="" songAlbum="" />
    <MediaItem id="15" filePath="C:\Users\Niki\Music\iTunes\iTunes Media\Music\toby fox\UNDERTALE Soundtrack\01 Once Upon a Time.mp3" arWidth="0" arHeight="0" duration="89.025274999999993" songTitle="Once Upon a Time" songArtist="toby fox" songAlbum="UNDERTALE Soundtrack" />
  </MediaItems>
  <Extents>
    <TitleClip extentID="51" gapBefore="0" duration="7">
      <Effects />
      <Transitions>
        <ShapeEffect effectTemplateID="FlipTransitionTemplate" duration="1.5">
          <BoundProperties />
        </ShapeEffect>
      </Transitions>
      <BoundProperties>
        <BoundPropertyFloatSet Name="diffuseColor">
          <BoundPropertyFloatElement Value="0" />
          <BoundPropertyFloatElement Value="0" />
          <BoundPropertyFloatElement Value="0" />
        </BoundPropertyFloatSet>
        <BoundPropertyFloat Name="transparency" Value="0" />
      </BoundProperties>
    </TitleClip>
    <ImageClip extentID="19" gapBefore="0" mediaItemID="9" duration="7">
      <Effects />
      <Transitions>
        <ShaderEffect effectTemplateID="DissolveTransitionTemplate" duration="1.5">
          <BoundProperties />
        </ShaderEffect>
      </Transitions>
      <BoundProperties>
        <BoundPropertyInt Name="rotateStepNinety" Value="0" />
      </BoundProperties>
    </ImageClip>
    <TitleClip extentID="20" gapBefore="-1.916667103767395" duration="5">
      <Effects>
        <TextEffect effectTemplateID="TextEffectTemplate" TextScriptId="0">
          <BoundProperties>
            <BoundPropertyBool Name="automatic" Value="false" />
            <BoundPropertyFloatSet Name="color">
              <BoundPropertyFloatElement Value="1" />
              <BoundPropertyFloatElement Value="1" />
              <BoundPropertyFloatElement Value="1" />
            </BoundPropertyFloatSet>
            <BoundPropertyStringSet Name="family">
              <BoundPropertyStringElement Value="Chiller" />
            </BoundPropertyStringSet>
            <BoundPropertyBool Name="horizontal" Value="true" />
            <BoundPropertyStringSet Name="justify">
              <BoundPropertyStringElement Value="MIDDLE" />
            </BoundPropertyStringSet>
            <BoundPropertyFloatSet Name="length">
              <BoundPropertyFloatElement Value="4.0999999046325684" />
              <BoundPropertyFloatElement Value="5.1999998092651367" />
            </BoundPropertyFloatSet>
            <BoundPropertyFloat Name="maxExtent" Value="5" />
            <BoundPropertyFloatSet Name="position">
              <BoundPropertyFloatElement Value="-2.4712042808532715" />
              <BoundPropertyFloatElement Value="2.7491288185119629" />
              <BoundPropertyFloatElement Value="0.02500000037252903" />
            </BoundPropertyFloatSet>
            <BoundPropertyFloat Name="size" Value="0.46666666865348816" />
            <BoundPropertyStringSet Name="string">
              <BoundPropertyStringElement Value="Voici une photo " />
              <BoundPropertyStringElement Value="de Amanda Todd. " />
              <BoundPropertyStringElement Value="Quand elle Ã©tait " />
              <BoundPropertyStringElement Value="victime, elle a bu " />
              <BoundPropertyStringElement Value="de l'eau de Javel " />
              <BoundPropertyStringElement Value="et elle se coupait " />
              <BoundPropertyStringElement Value="le poigets. Elle " />
              <BoundPropertyStringElement Value="est morte le 10 " />
              <BoundPropertyStringElement Value="Octobre, 2012." />
            </BoundPropertyStringSet>
            <BoundPropertyString Name="style" Value="Plain" />
            <BoundPropertyFloat Name="transparency" Value="0" />
          </BoundProperties>
        </TextEffect>
      </Effects>
      <Transitions />
      <BoundProperties>
        <BoundPropertyFloatSet Name="diffuseColor">
          <BoundPropertyFloatElement Value="0.75" />
          <BoundPropertyFloatElement Value="1" />
          <BoundPropertyFloatElement Value="0" />
        </BoundPropertyFloatSet>
        <BoundPropertyFloat Name="transparency" Value="1" />
      </BoundProperties>
    </TitleClip>
    <TitleClip extentID="38" gapBefore="0" duration="7">
      <Effects />
      <Transitions />
      <BoundProperties>
        <BoundPropertyFloatSet Name="diffuseColor">
          <BoundPropertyFloatElement Value="0" />
          <BoundPropertyFloatElement Value="0" />
          <BoundPropertyFloatElement Value="0" />
        </BoundPropertyFloatSet>
        <BoundPropertyFloat Name="transparency" Value="0" />
      </BoundProperties>
    </TitleClip>
    <ImageClip extentID="21" gapBefore="0" mediaItemID="10" duration="7">
      <Effects />
      <Transitions>
        <ShapeEffect effectTemplateID="BlurTransitionTemplate" duration="1.5">
          <BoundProperties />
        </ShapeEffect>
      </Transitions>
      <BoundProperties>
        <BoundPropertyInt Name="rotateStepNinety" Value="0" />
      </BoundProperties>
    </ImageClip>
    <TitleClip extentID="39" gapBefore="0" duration="7">
      <Effects>
        <TextEffect effectTemplateID="TextEffectScrollTemplate" TextScriptId="7">
          <BoundProperties>
            <BoundPropertyBool Name="automatic" Value="false" />
            <BoundPropertyFloatSet Name="color">
              <BoundPropertyFloatElement Value="1" />
              <BoundPropertyFloatElement Value="1" />
              <BoundPropertyFloatElement Value="1" />
            </BoundPropertyFloatSet>
            <BoundPropertyStringSet Name="family">
              <BoundPropertyStringElement Value="Segoe UI" />
            </BoundPropertyStringSet>
            <BoundPropertyBool Name="horizontal" Value="true" />
            <BoundPropertyStringSet Name="justify">
              <BoundPropertyStringElement Value="MIDDLE" />
            </BoundPropertyStringSet>
            <BoundPropertyFloatSet Name="length" />
            <BoundPropertyFloat Name="maxExtent" Value="0" />
            <BoundPropertyFloatSet Name="position">
              <BoundPropertyFloatElement Value="0" />
              <BoundPropertyFloatElement Value="0.30313587188720703" />
              <BoundPropertyFloatElement Value="0.02500000037252903" />
            </BoundPropertyFloatSet>
            <BoundPropertyFloat Name="size" Value="0.3333333432674408" />
            <BoundPropertyStringSet Name="string">
              <BoundPropertyStringElement Value="UN FILM DE" />
              <BoundPropertyStringElement Value="" />
              <BoundPropertyStringElement Value=" Nicole Covaliu" />
            </BoundPropertyStringSet>
            <BoundPropertyString Name="style" Value="Plain" />
            <BoundPropertyFloat Name="transparency" Value="0" />
          </BoundProperties>
        </TextEffect>
      </Effects>
      <Transitions />
      <BoundProperties>
        <BoundPropertyFloatSet Name="diffuseColor">
          <BoundPropertyFloatElement Value="0.75" />
          <BoundPropertyFloatElement Value="1" />
          <BoundPropertyFloatElement Value="0" />
        </BoundPropertyFloatSet>
        <BoundPropertyFloat Name="transparency" Value="1" />
      </BoundProperties>
    </TitleClip>
    <TitleClip extentID="22" gapBefore="0.5" duration="5.5">
      <Effects>
        <TextEffect effectTemplateID="TextEffectSpinInTemplate" TextScriptId="3">
          <BoundProperties>
            <BoundPropertyBool Name="automatic" Value="false" />
            <BoundPropertyFloatSet Name="color">
              <BoundPropertyFloatElement Value="1" />
              <BoundPropertyFloatElement Value="1" />
              <BoundPropertyFloatElement Value="0" />
            </BoundPropertyFloatSet>
            <BoundPropertyStringSet Name="family">
              <BoundPropertyStringElement Value="Segoe UI" />
            </BoundPropertyStringSet>
            <BoundPropertyBool Name="horizontal" Value="true" />
            <BoundPropertyStringSet Name="justify">
              <BoundPropertyStringElement Value="MIDDLE" />
            </BoundPropertyStringSet>
            <BoundPropertyFloatSet Name="length" />
            <BoundPropertyFloat Name="maxExtent" Value="0" />
            <BoundPropertyFloatSet Name="position">
              <BoundPropertyFloatElement Value="-0.5654449462890625" />
              <BoundPropertyFloatElement Value="1.7874563932418823" />
              <BoundPropertyFloatElement Value="0.02500000037252903" />
            </BoundPropertyFloatSet>
            <BoundPropertyFloat Name="size" Value="0.40000000596046448" />
            <BoundPropertyStringSet Name="string">
              <BoundPropertyStringElement Value="La plupart des victimes sont " />
              <BoundPropertyStringElement Value="seul(e)s" />
            </BoundPropertyStringSet>
            <BoundPropertyString Name="style" Value="Bold" />
            <BoundPropertyFloat Name="transparency" Value="0" />
          </BoundProperties>
        </TextEffect>
      </Effects>
      <Transitions />
      <BoundProperties>
        <BoundPropertyFloatSet Name="diffuseColor">
          <BoundPropertyFloatElement Value="0.75" />
          <BoundPropertyFloatElement Value="1" />
          <BoundPropertyFloatElement Value="0" />
        </BoundPropertyFloatSet>
        <BoundPropertyFloat Name="transparency" Value="1" />
      </BoundProperties>
    </TitleClip>
    <ImageClip extentID="5" gapBefore="0" mediaItemID="1" duration="7">
      <Effects>
        <PanAndZoomShapeEffect effectTemplateID="PanAndZoomEffectPanTopToBottomAlongLeftTemplate">
          <BoundProperties>
            <BoundPropertyInt Name="effectType" Value="3" />
          </BoundProperties>
        </PanAndZoomShapeEffect>
      </Effects>
      <Transitions>
        <ShaderEffect effectTemplateID="DissolveRoughTransitionTemplate" duration="1.5">
          <BoundProperties />
        </ShaderEffect>
      </Transitions>
      <BoundProperties>
        <BoundPropertyInt Name="rotateStepNinety" Value="0" />
      </BoundProperties>
    </ImageClip>
    <TitleClip extentID="40" gapBefore="0" duration="7">
      <Effects />
      <Transitions />
      <BoundProperties>
        <BoundPropertyFloatSet Name="diffuseColor">
          <BoundPropertyFloatElement Value="0" />
          <BoundPropertyFloatElement Value="0" />
          <BoundPropertyFloatElement Value="0" />
        </BoundPropertyFloatSet>
        <BoundPropertyFloat Name="transparency" Value="0" />
      </BoundProperties>
    </TitleClip>
    <ImageClip extentID="23" gapBefore="0" mediaItemID="11" duration="7">
      <Effects>
        <PanAndZoomShapeEffect effectTemplateID="PanAndZoomEffectZoomInFullToCenterWithCWRotationTemplate">
          <BoundProperties>
            <BoundPropertyInt Name="effectType" Value="5" />
          </BoundProperties>
        </PanAndZoomShapeEffect>
      </Effects>
      <Transitions>
        <ShapeEffect effectTemplateID="PixelateTransitionTemplate" duration="1.5">
          <BoundProperties />
        </ShapeEffect>
      </Transitions>
      <BoundProperties>
        <BoundPropertyInt Name="rotateStepNinety" Value="0" />
      </BoundProperties>
    </ImageClip>
    <TitleClip extentID="41" gapBefore="0" duration="7">
      <Effects>
        <TextEffect effectTemplateID="TextEffectScrollTemplate" TextScriptId="7">
          <BoundProperties>
            <BoundPropertyBool Name="automatic" Value="false" />
            <BoundPropertyFloatSet Name="color">
              <BoundPropertyFloatElement Value="1" />
              <BoundPropertyFloatElement Value="1" />
              <BoundPropertyFloatElement Value="1" />
            </BoundPropertyFloatSet>
            <BoundPropertyStringSet Name="family">
              <BoundPropertyStringElement Value="Segoe UI" />
            </BoundPropertyStringSet>
            <BoundPropertyBool Name="horizontal" Value="true" />
            <BoundPropertyStringSet Name="justify">
              <BoundPropertyStringElement Value="MIDDLE" />
            </BoundPropertyStringSet>
            <BoundPropertyFloatSet Name="length" />
            <BoundPropertyFloat Name="maxExtent" Value="0" />
            <BoundPropertyFloatSet Name="position">
              <BoundPropertyFloatElement Value="0" />
              <BoundPropertyFloatElement Value="0.30313587188720703" />
              <BoundPropertyFloatElement Value="0.02500000037252903" />
            </BoundPropertyFloatSet>
            <BoundPropertyFloat Name="size" Value="0.3333333432674408" />
            <BoundPropertyStringSet Name="string">
              <BoundPropertyStringElement Value="IMAGES TOUVÃE SUR" />
              <BoundPropertyStringElement Value="" />
              <BoundPropertyStringElement Value="Google" />
            </BoundPropertyStringSet>
            <BoundPropertyString Name="style" Value="Plain" />
            <BoundPropertyFloat Name="transparency" Value="0" />
          </BoundProperties>
        </TextEffect>
      </Effects>
      <Transitions />
      <BoundProperties>
        <BoundPropertyFloatSet Name="diffuseColor">
          <BoundPropertyFloatElement Value="0.75" />
          <BoundPropertyFloatElement Value="1" />
          <BoundPropertyFloatElement Value="0" />
        </BoundPropertyFloatSet>
        <BoundPropertyFloat Name="transparency" Value="1" />
      </BoundProperties>
    </TitleClip>
    <TitleClip extentID="24" gapBefore="0" duration="5.5">
      <Effects>
        <TextEffect effectTemplateID="TextEffectSwingDownTemplate" TextScriptId="8">
          <BoundProperties>
            <BoundPropertyBool Name="automatic" Value="false" />
            <BoundPropertyFloatSet Name="color">
              <BoundPropertyFloatElement Value="1" />
              <BoundPropertyFloatElement Value="0.75294119119644165" />
              <BoundPropertyFloatElement Value="0" />
            </BoundPropertyFloatSet>
            <BoundPropertyStringSet Name="family">
              <BoundPropertyStringElement Value="Papyrus" />
            </BoundPropertyStringSet>
            <BoundPropertyBool Name="horizontal" Value="true" />
            <BoundPropertyStringSet Name="justify">
              <BoundPropertyStringElement Value="MIDDLE" />
            </BoundPropertyStringSet>
            <BoundPropertyFloatSet Name="length" />
            <BoundPropertyFloat Name="maxExtent" Value="0" />
            <BoundPropertyFloatSet Name="position">
              <BoundPropertyFloatElement Value="2.7225131988525391" />
              <BoundPropertyFloatElement Value="2.7700347900390625" />
              <BoundPropertyFloatElement Value="0.02500000037252903" />
            </BoundPropertyFloatSet>
            <BoundPropertyFloat Name="size" Value="0.40000000596046448" />
            <BoundPropertyStringSet Name="string">
              <BoundPropertyStringElement Value="Tu peux " />
              <BoundPropertyStringElement Value="toujours " />
              <BoundPropertyStringElement Value="demander " />
              <BoundPropertyStringElement Value="de " />
              <BoundPropertyStringElement Value="l'aide Ã  vos " />
              <BoundPropertyStringElement Value="parents, un " />
              <BoundPropertyStringElement Value="professeur " />
              <BoundPropertyStringElement Value="ou vos " />
              <BoundPropertyStringElement Value="ami(e)s." />
            </BoundPropertyStringSet>
            <BoundPropertyString Name="style" Value="Plain" />
            <BoundPropertyFloat Name="transparency" Value="0" />
          </BoundProperties>
        </TextEffect>
      </Effects>
      <Transitions />
      <BoundProperties>
        <BoundPropertyFloatSet Name="diffuseColor">
          <BoundPropertyFloatElement Value="0.75" />
          <BoundPropertyFloatElement Value="1" />
          <BoundPropertyFloatElement Value="0" />
        </BoundPropertyFloatSet>
        <BoundPropertyFloat Name="transparency" Value="1" />
      </BoundProperties>
    </TitleClip>
    <TitleClip extentID="7" gapBefore="1.5" duration="5.5">
      <Effects>
        <TextEffect effectTemplateID="TextEffectFadeZoomTemplate" TextScriptId="9">
          <BoundProperties>
            <BoundPropertyBool Name="automatic" Value="false" />
            <BoundPropertyFloatSet Name="color">
              <BoundPropertyFloatElement Value="1" />
              <BoundPropertyFloatElement Value="1" />
              <BoundPropertyFloatElement Value="1" />
            </BoundPropertyFloatSet>
            <BoundPropertyStringSet Name="family">
              <BoundPropertyStringElement Value="Segoe UI" />
            </BoundPropertyStringSet>
            <BoundPropertyBool Name="horizontal" Value="true" />
            <BoundPropertyStringSet Name="justify">
              <BoundPropertyStringElement Value="MIDDLE" />
            </BoundPropertyStringSet>
            <BoundPropertyFloatSet Name="length" />
            <BoundPropertyFloat Name="maxExtent" Value="0" />
            <BoundPropertyFloatSet Name="position">
              <BoundPropertyFloatElement Value="0" />
              <BoundPropertyFloatElement Value="1.118466854095459" />
              <BoundPropertyFloatElement Value="0.02500000037252903" />
            </BoundPropertyFloatSet>
            <BoundPropertyFloat Name="size" Value="0.60000002384185791" />
            <BoundPropertyStringSet Name="string">
              <BoundPropertyStringElement Value="L'intimidation: le cauchmard " />
              <BoundPropertyStringElement Value="de tout le monde." />
            </BoundPropertyStringSet>
            <BoundPropertyString Name="style" Value="Plain" />
            <BoundPropertyFloat Name="transparency" Value="0" />
          </BoundProperties>
        </TextEffect>
      </Effects>
      <Transitions />
      <BoundProperties>
        <BoundPropertyFloatSet Name="diffuseColor">
          <BoundPropertyFloatElement Value="0.75" />
          <BoundPropertyFloatElement Value="1" />
          <BoundPropertyFloatElement Value="0" />
        </BoundPropertyFloatSet>
        <BoundPropertyFloat Name="transparency" Value="1" />
      </BoundProperties>
    </TitleClip>
    <TitleClip extentID="42" gapBefore="0" duration="7">
      <Effects />
      <Transitions />
      <BoundProperties>
        <BoundPropertyFloatSet Name="diffuseColor">
          <BoundPropertyFloatElement Value="0" />
          <BoundPropertyFloatElement Value="0" />
          <BoundPropertyFloatElement Value="0" />
        </BoundPropertyFloatSet>
        <BoundPropertyFloat Name="transparency" Value="0" />
      </BoundProperties>
    </TitleClip>
    <ImageClip extentID="25" gapBefore="0" mediaItemID="12" duration="7">
      <Effects />
      <Transitions>
        <ShapeEffect effectTemplateID="ShrinkInTransitionTemplate" duration="1.5">
          <BoundProperties />
        </ShapeEffect>
      </Transitions>
      <BoundProperties>
        <BoundPropertyInt Name="rotateStepNinety" Value="0" />
      </BoundProperties>
    </ImageClip>
    <TitleClip extentID="8" gapBefore="0" duration="8">
      <Effects>
        <TextEffect effectTemplateID="TextEffectStretchTemplate" TextScriptId="2">
          <BoundProperties>
            <BoundPropertyBool Name="automatic" Value="false" />
            <BoundPropertyFloatSet Name="color">
              <BoundPropertyFloatElement Value="1" />
              <BoundPropertyFloatElement Value="1" />
              <BoundPropertyFloatElement Value="1" />
            </BoundPropertyFloatSet>
            <BoundPropertyStringSet Name="family">
              <BoundPropertyStringElement Value="Segoe UI Semilight" />
            </BoundPropertyStringSet>
            <BoundPropertyBool Name="horizontal" Value="true" />
            <BoundPropertyStringSet Name="justify">
              <BoundPropertyStringElement Value="MIDDLE" />
            </BoundPropertyStringSet>
            <BoundPropertyFloatSet Name="length" />
            <BoundPropertyFloat Name="maxExtent" Value="0" />
            <BoundPropertyFloatSet Name="position">
              <BoundPropertyFloatElement Value="0.39790582656860352" />
              <BoundPropertyFloatElement Value="-0.9303135871887207" />
              <BoundPropertyFloatElement Value="0.02500000037252903" />
            </BoundPropertyFloatSet>
            <BoundPropertyFloat Name="size" Value="0.40000000596046448" />
            <BoundPropertyStringSet Name="string">
              <BoundPropertyStringElement Value="L'intimidation est quand " />
              <BoundPropertyStringElement Value="quelqu'un se moque de nous " />
              <BoundPropertyStringElement Value="pour se sentir supÃ©rieur." />
            </BoundPropertyStringSet>
            <BoundPropertyString Name="style" Value="Plain" />
            <BoundPropertyFloat Name="transparency" Value="0" />
          </BoundProperties>
        </TextEffect>
      </Effects>
      <Transitions />
      <BoundProperties>
        <BoundPropertyFloatSet Name="diffuseColor">
          <BoundPropertyFloatElement Value="0.75" />
          <BoundPropertyFloatElement Value="1" />
          <BoundPropertyFloatElement Value="0" />
        </BoundPropertyFloatSet>
        <BoundPropertyFloat Name="transparency" Value="1" />
      </BoundProperties>
    </TitleClip>
    <TitleClip extentID="43" gapBefore="0" duration="7">
      <Effects>
        <TextEffect effectTemplateID="TextEffectScrollTemplate" TextScriptId="7">
          <BoundProperties>
            <BoundPropertyBool Name="automatic" Value="false" />
            <BoundPropertyFloatSet Name="color">
              <BoundPropertyFloatElement Value="1" />
              <BoundPropertyFloatElement Value="1" />
              <BoundPropertyFloatElement Value="1" />
            </BoundPropertyFloatSet>
            <BoundPropertyStringSet Name="family">
              <BoundPropertyStringElement Value="Segoe UI" />
            </BoundPropertyStringSet>
            <BoundPropertyBool Name="horizontal" Value="true" />
            <BoundPropertyStringSet Name="justify">
              <BoundPropertyStringElement Value="MIDDLE" />
            </BoundPropertyStringSet>
            <BoundPropertyFloatSet Name="length" />
            <BoundPropertyFloat Name="maxExtent" Value="0" />
            <BoundPropertyFloatSet Name="position">
              <BoundPropertyFloatElement Value="0" />
              <BoundPropertyFloatElement Value="0.30313587188720703" />
              <BoundPropertyFloatElement Value="0.02500000037252903" />
            </BoundPropertyFloatSet>
            <BoundPropertyFloat Name="size" Value="0.3333333432674408" />
            <BoundPropertyStringSet Name="string">
              <BoundPropertyStringElement Value="MUSIC" />
              <BoundPropertyStringElement Value="" />
              <BoundPropertyStringElement Value="Once upon a time de Toby Fox" />
            </BoundPropertyStringSet>
            <BoundPropertyString Name="style" Value="Plain" />
            <BoundPropertyFloat Name="transparency" Value="0" />
          </BoundProperties>
        </TextEffect>
      </Effects>
      <Transitions />
      <BoundProperties>
        <BoundPropertyFloatSet Name="diffuseColor">
          <BoundPropertyFloatElement Value="0.75" />
          <BoundPropertyFloatElement Value="1" />
          <BoundPropertyFloatElement Value="0" />
        </BoundPropertyFloatSet>
        <BoundPropertyFloat Name="transparency" Value="1" />
      </BoundProperties>
    </TitleClip>
    <TitleClip extentID="26" gapBefore="0" duration="5.5">
      <Effects>
        <TextEffect effectTemplateID="TextEffectFadeZoomTemplate" TextScriptId="9">
          <BoundProperties>
            <BoundPropertyBool Name="automatic" Value="false" />
            <BoundPropertyFloatSet Name="color">
              <BoundPropertyFloatElement Value="1" />
              <BoundPropertyFloatElement Value="1" />
              <BoundPropertyFloatElement Value="1" />
            </BoundPropertyFloatSet>
            <BoundPropertyStringSet Name="family">
              <BoundPropertyStringElement Value="Segoe UI" />
            </BoundPropertyStringSet>
            <BoundPropertyBool Name="horizontal" Value="true" />
            <BoundPropertyStringSet Name="justify">
              <BoundPropertyStringElement Value="MIDDLE" />
            </BoundPropertyStringSet>
            <BoundPropertyFloatSet Name="length" />
            <BoundPropertyFloat Name="maxExtent" Value="0" />
            <BoundPropertyFloatSet Name="position">
              <BoundPropertyFloatElement Value="0" />
              <BoundPropertyFloatElement Value="-1.2020907402038574" />
              <BoundPropertyFloatElement Value="0.02500000037252903" />
            </BoundPropertyFloatSet>
            <BoundPropertyFloat Name="size" Value="0.40000000596046448" />
            <BoundPropertyStringSet Name="string">
              <BoundPropertyStringElement Value="L'intimidation arrive Ã  tout le " />
              <BoundPropertyStringElement Value="monde. Peut-Ãªtre mÃªme chez " />
              <BoundPropertyStringElement Value="vos parents! " />
            </BoundPropertyStringSet>
            <BoundPropertyString Name="style" Value="Plain" />
            <BoundPropertyFloat Name="transparency" Value="0" />
          </BoundProperties>
        </TextEffect>
      </Effects>
      <Transitions />
      <BoundProperties>
        <BoundPropertyFloatSet Name="diffuseColor">
          <BoundPropertyFloatElement Value="0.75" />
          <BoundPropertyFloatElement Value="1" />
          <BoundPropertyFloatElement Value="0" />
        </BoundPropertyFloatSet>
        <BoundPropertyFloat Name="transparency" Value="1" />
      </BoundProperties>
    </TitleClip>
    <TitleClip extentID="44" gapBefore="0" duration="7">
      <Effects />
      <Transitions />
      <BoundProperties>
        <BoundPropertyFloatSet Name="diffuseColor">
          <BoundPropertyFloatElement Value="0" />
          <BoundPropertyFloatElement Value="0" />
          <BoundPropertyFloatElement Value="0" />
        </BoundPropertyFloatSet>
        <BoundPropertyFloat Name="transparency" Value="0" />
      </BoundProperties>
    </TitleClip>
    <ImageClip extentID="27" gapBefore="0" mediaItemID="13" duration="7">
      <Effects>
        <PanAndZoomShapeEffect effectTemplateID="PanAndZoomEffectPanTopToBottomAlongLeftTemplate">
          <BoundProperties>
            <BoundPropertyInt Name="effectType" Value="3" />
          </BoundProperties>
        </PanAndZoomShapeEffect>
      </Effects>
      <Transitions>
        <ShaderEffect effectTemplateID="ShatterInTransitionTemplate" duration="1.5">
          <BoundProperties />
        </ShaderEffect>
      </Transitions>
      <BoundProperties>
        <BoundPropertyInt Name="rotateStepNinety" Value="0" />
      </BoundProperties>
    </ImageClip>
    <TitleClip extentID="45" gapBefore="0" duration="7">
      <Effects>
        <TextEffect effectTemplateID="TextEffectCinematicTitleTemplate" TextScriptId="11">
          <BoundProperties>
            <BoundPropertyBool Name="automatic" Value="false" />
            <BoundPropertyFloatSet Name="color">
              <BoundPropertyFloatElement Value="1" />
              <BoundPropertyFloatElement Value="1" />
              <BoundPropertyFloatElement Value="1" />
            </BoundPropertyFloatSet>
            <BoundPropertyStringSet Name="family">
              <BoundPropertyStringElement Value="Segoe UI" />
            </BoundPropertyStringSet>
            <BoundPropertyBool Name="horizontal" Value="true" />
            <BoundPropertyStringSet Name="justify">
              <BoundPropertyStringElement Value="MIDDLE" />
            </BoundPropertyStringSet>
            <BoundPropertyFloatSet Name="length" />
            <BoundPropertyFloat Name="maxExtent" Value="0" />
            <BoundPropertyFloatSet Name="position">
              <BoundPropertyFloatElement Value="0" />
              <BoundPropertyFloatElement Value="0.30313587188720703" />
              <BoundPropertyFloatElement Value="0.02500000037252903" />
            </BoundPropertyFloatSet>
            <BoundPropertyFloat Name="size" Value="0.3333333432674408" />
            <BoundPropertyStringSet Name="string">
              <BoundPropertyStringElement Value="MERÃI" />
            </BoundPropertyStringSet>
            <BoundPropertyString Name="style" Value="Plain" />
            <BoundPropertyFloat Name="transparency" Value="0" />
          </BoundProperties>
        </TextEffect>
      </Effects>
      <Transitions />
      <BoundProperties>
        <BoundPropertyFloatSet Name="diffuseColor">
          <BoundPropertyFloatElement Value="0.75" />
          <BoundPropertyFloatElement Value="1" />
          <BoundPropertyFloatElement Value="0" />
        </BoundPropertyFloatSet>
        <BoundPropertyFloat Name="transparency" Value="1" />
      </BoundProperties>
    </TitleClip>
    <AudioClip extentID="46" gapBefore="0" mediaItemID="15" inTime="0" outTime="0" speed="1">
      <Effects />
      <Transitions />
      <BoundProperties>
        <BoundPropertyBool Name="Mute" Value="false" />
        <BoundPropertyFloat Name="Volume" Value="1" />
      </BoundProperties>
    </AudioClip>
    <TitleClip extentID="29" gapBefore="0" duration="5.5">
      <Effects>
        <TextEffect effectTemplateID="TextEffectFlyInLeftTemplate" TextScriptId="6">
          <BoundProperties>
            <BoundPropertyBool Name="automatic" Value="false" />
            <BoundPropertyFloatSet Name="color">
              <BoundPropertyFloatElement Value="1" />
              <BoundPropertyFloatElement Value="1" />
              <BoundPropertyFloatElement Value="0" />
            </BoundPropertyFloatSet>
            <BoundPropertyStringSet Name="family">
              <BoundPropertyStringElement Value="Segoe UI" />
            </BoundPropertyStringSet>
            <BoundPropertyBool Name="horizontal" Value="true" />
            <BoundPropertyStringSet Name="justify">
              <BoundPropertyStringElement Value="MIDDLE" />
            </BoundPropertyStringSet>
            <BoundPropertyFloatSet Name="length" />
            <BoundPropertyFloat Name="maxExtent" Value="0" />
            <BoundPropertyFloatSet Name="position">
              <BoundPropertyFloatElement Value="-1.109947681427002" />
              <BoundPropertyFloatElement Value="-0.67944240570068359" />
              <BoundPropertyFloatElement Value="0.02500000037252903" />
            </BoundPropertyFloatSet>
            <BoundPropertyFloat Name="size" Value="0.40000000596046448" />
            <BoundPropertyStringSet Name="string">
              <BoundPropertyStringElement Value="L'intimidation n'est " />
              <BoundPropertyStringElement Value="pas " />
              <BoundPropertyStringElement Value="toujours facile a " />
              <BoundPropertyStringElement Value="conquÃ©rir." />
            </BoundPropertyStringSet>
            <BoundPropertyString Name="style" Value="Bold" />
            <BoundPropertyFloat Name="transparency" Value="0" />
          </BoundProperties>
        </TextEffect>
      </Effects>
      <Transitions />
      <BoundProperties>
        <BoundPropertyFloatSet Name="diffuseColor">
          <BoundPropertyFloatElement Value="0.75" />
          <BoundPropertyFloatElement Value="1" />
          <BoundPropertyFloatElement Value="0" />
        </BoundPropertyFloatSet>
        <BoundPropertyFloat Name="transparency" Value="1" />
      </BoundProperties>
    </TitleClip>
    <ImageClip extentID="30" gapBefore="0" mediaItemID="14" duration="7">
      <Effects>
        <PanAndZoomShapeEffect effectTemplateID="PanAndZoomEffectZoomOutCenterToFullTemplate">
          <BoundProperties>
            <BoundPropertyInt Name="effectType" Value="6" />
          </BoundProperties>
        </PanAndZoomShapeEffect>
      </Effects>
      <Transitions>
        <ShaderEffect effectTemplateID="BarsHorizontalTransitionTemplate" duration="1.5">
          <BoundProperties />
        </ShaderEffect>
      </Transitions>
      <BoundProperties>
        <BoundPropertyInt Name="rotateStepNinety" Value="0" />
      </BoundProperties>
    </ImageClip>
    <ImageClip extentID="13" gapBefore="0" mediaItemID="6" duration="7">
      <Effects>
        <PanAndZoomShapeEffect effectTemplateID="PanAndZoomEffectPanLeftToRightAlongMiddleTemplate">
          <BoundProperties>
            <BoundPropertyInt Name="effectType" Value="1" />
          </BoundProperties>
        </PanAndZoomShapeEffect>
      </Effects>
      <Transitions>
        <ShaderEffect effectTemplateID="PageCurlUpLeftTransitionTemplate" duration="1.5">
          <BoundProperties />
        </ShaderEffect>
      </Transitions>
      <BoundProperties>
        <BoundPropertyInt Name="rotateStepNinety" Value="0" />
      </BoundProperties>
    </ImageClip>
    <TitleClip extentID="31" gapBefore="0" duration="5.5">
      <Effects>
        <TextEffect effectTemplateID="TextEffectSpinInTemplate" TextScriptId="3">
          <BoundProperties>
            <BoundPropertyBool Name="automatic" Value="false" />
            <BoundPropertyFloatSet Name="color">
              <BoundPropertyFloatElement Value="0.25098040699958801" />
              <BoundPropertyFloatElement Value="0" />
              <BoundPropertyFloatElement Value="0.50196081399917603" />
            </BoundPropertyFloatSet>
            <BoundPropertyStringSet Name="family">
              <BoundPropertyStringElement Value="Segoe UI" />
            </BoundPropertyStringSet>
            <BoundPropertyBool Name="horizontal" Value="true" />
            <BoundPropertyStringSet Name="justify">
              <BoundPropertyStringElement Value="MIDDLE" />
            </BoundPropertyStringSet>
            <BoundPropertyFloatSet Name="length" />
            <BoundPropertyFloat Name="maxExtent" Value="0" />
            <BoundPropertyFloatSet Name="position">
              <BoundPropertyFloatElement Value="0.083769798278808594" />
              <BoundPropertyFloatElement Value="1.2229964733123779" />
              <BoundPropertyFloatElement Value="0.02500000037252903" />
            </BoundPropertyFloatSet>
            <BoundPropertyFloat Name="size" Value="0.40000000596046448" />
            <BoundPropertyStringSet Name="string">
              <BoundPropertyStringElement Value="Mais avec " />
              <BoundPropertyStringElement Value="de l'aide, " />
              <BoundPropertyStringElement Value="des amis et " />
              <BoundPropertyStringElement Value="l'estime de " />
              <BoundPropertyStringElement Value="soi..." />
            </BoundPropertyStringSet>
            <BoundPropertyString Name="style" Value="Plain" />
            <BoundPropertyFloat Name="transparency" Value="0" />
          </BoundProperties>
        </TextEffect>
      </Effects>
      <Transitions />
      <BoundProperties>
        <BoundPropertyFloatSet Name="diffuseColor">
          <BoundPropertyFloatElement Value="0.75" />
          <BoundPropertyFloatElement Value="1" />
          <BoundPropertyFloatElement Value="0" />
        </BoundPropertyFloatSet>
        <BoundPropertyFloat Name="transparency" Value="1" />
      </BoundProperties>
    </TitleClip>
    <ImageClip extentID="32" gapBefore="0" mediaItemID="8" duration="7">
      <Effects>
        <PanAndZoomShapeEffect effectTemplateID="PanAndZoomEffectZoomInFullToCenterWithCCWRotationTemplate">
          <BoundProperties>
            <BoundPropertyInt Name="effectType" Value="5" />
          </BoundProperties>
        </PanAndZoomShapeEffect>
      </Effects>
      <Transitions>
        <ShaderEffect effectTemplateID="PageCurlDownRightTransitionTemplate" duration="1.5">
          <BoundProperties />
        </ShaderEffect>
      </Transitions>
      <BoundProperties>
        <BoundPropertyInt Name="rotateStepNinety" Value="0" />
      </BoundProperties>
    </ImageClip>
    <TitleClip extentID="33" gapBefore="0" duration="5.5">
      <Effects>
        <TextEffect effectTemplateID="TextEffectStretchTemplate" TextScriptId="2">
          <BoundProperties>
            <BoundPropertyBool Name="automatic" Value="true" />
            <BoundPropertyFloatSet Name="color">
              <BoundPropertyFloatElement Value="0" />
              <BoundPropertyFloatElement Value="0" />
              <BoundPropertyFloatElement Value="0" />
            </BoundPropertyFloatSet>
            <BoundPropertyStringSet Name="family">
              <BoundPropertyStringElement Value="Palatino Linotype" />
            </BoundPropertyStringSet>
            <BoundPropertyBool Name="horizontal" Value="true" />
            <BoundPropertyStringSet Name="justify">
              <BoundPropertyStringElement Value="MIDDLE" />
            </BoundPropertyStringSet>
            <BoundPropertyFloatSet Name="length" />
            <BoundPropertyFloat Name="maxExtent" Value="0" />
            <BoundPropertyFloatSet Name="position">
              <BoundPropertyFloatElement Value="-0.23036646842956543" />
              <BoundPropertyFloatElement Value="1.8083623647689819" />
              <BoundPropertyFloatElement Value="0.02500000037252903" />
            </BoundPropertyFloatSet>
            <BoundPropertyFloat Name="size" Value="0.46666666865348816" />
            <BoundPropertyStringSet Name="string">
              <BoundPropertyStringElement Value="TOUT EST POSSIBLE!!!" />
            </BoundPropertyStringSet>
            <BoundPropertyString Name="style" Value="Plain" />
            <BoundPropertyFloat Name="transparency" Value="0" />
          </BoundProperties>
        </TextEffect>
      </Effects>
      <Transitions />
      <BoundProperties>
        <BoundPropertyFloatSet Name="diffuseColor">
          <BoundPropertyFloatElement Value="0.75" />
          <BoundPropertyFloatElement Value="1" />
          <BoundPropertyFloatElement Value="0" />
        </BoundPropertyFloatSet>
        <BoundPropertyFloat Name="transparency" Value="1" />
      </BoundProperties>
    </TitleClip>
    <TitleClip extentID="16" gapBefore="-3.083332896232605" duration="8">
      <Effects>
        <TextEffect effectTemplateID="TextEffectFlyInTemplate" TextScriptId="5">
          <BoundProperties>
            <BoundPropertyBool Name="automatic" Value="false" />
            <BoundPropertyFloatSet Name="color">
              <BoundPropertyFloatElement Value="0.81960785388946533" />
              <BoundPropertyFloatElement Value="0.38823530077934265" />
              <BoundPropertyFloatElement Value="0.28627452254295349" />
            </BoundPropertyFloatSet>
            <BoundPropertyStringSet Name="family">
              <BoundPropertyStringElement Value="Comic Sans MS" />
            </BoundPropertyStringSet>
            <BoundPropertyBool Name="horizontal" Value="true" />
            <BoundPropertyStringSet Name="justify">
              <BoundPropertyStringElement Value="MIDDLE" />
            </BoundPropertyStringSet>
            <BoundPropertyFloatSet Name="length" />
            <BoundPropertyFloat Name="maxExtent" Value="0" />
            <BoundPropertyFloatSet Name="position">
              <BoundPropertyFloatElement Value="-2.4712042808532715" />
              <BoundPropertyFloatElement Value="2.7700347900390625" />
              <BoundPropertyFloatElement Value="0.02500000037252903" />
            </BoundPropertyFloatSet>
            <BoundPropertyFloat Name="size" Value="0.40000000596046448" />
            <BoundPropertyStringSet Name="string">
              <BoundPropertyStringElement Value="Certains " />
              <BoundPropertyStringElement Value="enfants se " />
              <BoundPropertyStringElement Value="font menacer " />
              <BoundPropertyStringElement Value="sur internet " />
              <BoundPropertyStringElement Value="et " />
              <BoundPropertyStringElement Value="la pluparts ne " />
              <BoundPropertyStringElement Value="disent pas Ã  " />
              <BoundPropertyStringElement Value="leurs parents " />
              <BoundPropertyStringElement Value="ce qui leur " />
              <BoundPropertyStringElement Value="arrivent." />
            </BoundPropertyStringSet>
            <BoundPropertyString Name="style" Value="Plain" />
            <BoundPropertyFloat Name="transparency" Value="0" />
          </BoundProperties>
        </TextEffect>
      </Effects>
      <Transitions />
      <BoundProperties>
        <BoundPropertyFloatSet Name="diffuseColor">
          <BoundPropertyFloatElement Value="0.75" />
          <BoundPropertyFloatElement Value="1" />
          <BoundPropertyFloatElement Value="0" />
        </BoundPropertyFloatSet>
        <BoundPropertyFloat Name="transparency" Value="1" />
      </BoundProperties>
    </TitleClip>
    <ExtentSelector extentID="1" gapBefore="0" primaryTrack="true">
      <Effects />
      <Transitions />
      <BoundProperties />
      <ExtentRefs>
        <ExtentRef id="51" />
        <ExtentRef id="5" />
        <ExtentRef id="13" />
        <ExtentRef id="19" />
        <ExtentRef id="21" />
        <ExtentRef id="23" />
        <ExtentRef id="25" />
        <ExtentRef id="27" />
        <ExtentRef id="30" />
        <ExtentRef id="32" />
        <ExtentRef id="38" />
        <ExtentRef id="40" />
        <ExtentRef id="42" />
        <ExtentRef id="44" />
      </ExtentRefs>
    </ExtentSelector>
    <ExtentSelector extentID="2" gapBefore="0" primaryTrack="false">
      <Effects />
      <Transitions />
      <BoundProperties />
      <ExtentRefs>
        <ExtentRef id="46" />
      </ExtentRefs>
    </ExtentSelector>
    <ExtentSelector extentID="3" gapBefore="0" primaryTrack="false">
      <Effects />
      <Transitions />
      <BoundProperties />
      <ExtentRefs />
    </ExtentSelector>
    <ExtentSelector extentID="4" gapBefore="0" primaryTrack="false">
      <Effects />
      <Transitions />
      <BoundProperties />
      <ExtentRefs>
        <ExtentRef id="7" />
        <ExtentRef id="8" />
        <ExtentRef id="16" />
        <ExtentRef id="20" />
        <ExtentRef id="22" />
        <ExtentRef id="24" />
        <ExtentRef id="26" />
        <ExtentRef id="29" />
        <ExtentRef id="31" />
        <ExtentRef id="33" />
        <ExtentRef id="39" />
        <ExtentRef id="41" />
        <ExtentRef id="43" />
        <ExtentRef id="45" />
      </ExtentRefs>
    </ExtentSelector>
  </Extents>
  <BoundPlaceholders>
    <BoundPlaceholder placeholderID="SingleExtentView" extentID="0" />
    <BoundPlaceholder placeholderID="Main" extentID="1" />
    <BoundPlaceholder placeholderID="SoundTrack" extentID="2" />
    <BoundPlaceholder placeholderID="Text" extentID="4" />
    <BoundPlaceholder placeholderID="Narration" extentID="3" />
  </BoundPlaceholders>
  <BoundProperties>
    <BoundPropertyFloatSet Name="AspectRatio">
      <BoundPropertyFloatElement Value="1.3333332538604736" />
    </BoundPropertyFloatSet>
    <BoundPropertyFloat Name="SoundTrackMix" Value="1" />
  </BoundProperties>
  <ThemeOperationLog themeID="0">
    <MonolithicThemeOperations />
  </ThemeOperationLog>
</Project>